<?xml version="1.0" standalone="no"?>
<!DOCTYPE svg PUBLIC "-//W3C//DTD SVG 20010904//EN"
 "http://www.w3.org/TR/2001/REC-SVG-20010904/DTD/svg10.dtd">
<svg version="1.0" xmlns="http://www.w3.org/2000/svg"
 width="618.000000pt" height="618.000000pt" viewBox="0 0 618.000000 618.000000"
 preserveAspectRatio="xMidYMid meet">
<metadata>
Created by potrace 1.11, written by Peter Selinger 2001-2013
</metadata>
<g transform="translate(0.000000,618.000000) scale(0.100000,-0.100000)"
fill="#000000" stroke="none">
<path d="M2570 4976 c-283 -81 -349 -100 -371 -112 -45 -23 -43 -95 3 -110 22
-7 40 -9 149 -15 l46 -2 53 -171 c28 -94 54 -180 57 -191 3 -17 -8 -26 -69
-55 -123 -59 -247 -149 -360 -260 l-107 -106 -78 56 c-43 31 -124 89 -181 129
-56 40 -101 75 -98 79 2 4 7 30 10 57 4 28 8 59 10 70 16 87 17 126 5 141 -20
24 -57 36 -79 24 -14 -8 -99 -135 -155 -232 -5 -10 -43 -71 -82 -135 -75 -121
-82 -145 -59 -176 29 -38 61 -31 156 33 49 33 92 60 94 60 7 0 326 -227 344
-244 10 -10 4 -29 -32 -97 -81 -155 -142 -367 -149 -521 l-2 -33 -175 -3 -175
-2 -43 75 c-23 41 -48 75 -55 76 -6 0 -20 2 -31 4 -10 2 -28 -6 -40 -18 -21
-22 -23 -31 -24 -218 -2 -184 -1 -196 18 -217 42 -44 86 -23 137 68 25 45 32
50 63 51 72 2 323 0 325 -3 1 -2 5 -28 9 -58 18 -163 88 -373 171 -512 19 -33
35 -62 35 -66 0 -6 -251 -194 -287 -215 -10 -6 -46 2 -101 23 -48 17 -92 33
-99 35 -20 6 -53 -28 -58 -60 -5 -26 4 -41 76 -125 44 -52 102 -120 127 -150
89 -106 108 -121 139 -116 51 10 62 49 40 141 -3 11 -10 39 -15 62 l-10 42 52
39 c101 76 236 172 242 172 3 0 48 -40 100 -88 51 -49 131 -114 178 -146 82
-55 234 -136 255 -136 17 0 13 -16 -43 -170 l-52 -145 -45 1 c-24 1 -80 3
-123 6 -73 5 -81 4 -103 -18 -28 -28 -30 -57 -4 -83 14 -14 263 -103 326 -117
6 -1 35 -11 65 -22 161 -57 195 -59 219 -14 21 39 2 68 -85 127 -46 32 -84 59
-84 61 0 4 111 308 113 311 1 1 29 -5 62 -13 165 -38 392 -35 588 10 43 10 60
11 62 2 13 -38 95 -332 95 -341 0 -6 -36 -37 -81 -69 -80 -57 -81 -59 -75 -94
12 -76 38 -75 302 21 117 42 215 77 219 77 12 0 34 28 40 52 9 35 -22 69 -65
72 -19 1 -63 0 -98 -4 -51 -5 -65 -3 -72 10 -4 8 -26 83 -49 165 -23 83 -44
157 -47 167 -3 12 9 23 50 41 148 68 338 217 459 360 l23 27 130 -101 c71 -55
138 -107 148 -115 19 -13 19 -15 -7 -99 -21 -66 -24 -91 -16 -106 12 -24 55
-42 80 -34 9 3 57 61 105 128 49 67 105 145 126 172 50 66 50 108 1 133 -26
14 -42 9 -110 -36 l-52 -34 -43 33 c-109 85 -244 192 -251 199 -5 4 10 43 32
87 23 44 41 83 41 87 0 4 9 27 20 51 34 75 79 277 84 379 l2 31 218 5 c120 3
222 3 226 0 5 -3 18 -43 30 -90 29 -117 39 -139 66 -146 33 -9 70 3 79 23 12
26 14 565 3 586 -14 27 -53 39 -83 25 -21 -9 -31 -30 -57 -115 -31 -101 -32
-103 -62 -104 -17 0 -116 0 -221 0 -146 0 -191 3 -196 13 -4 7 -14 58 -23 113
-21 132 -58 246 -122 374 -48 97 -51 107 -36 119 89 70 345 243 351 236 3 -5
24 -22 46 -39 22 -16 46 -35 53 -42 8 -8 27 -20 42 -28 53 -27 105 11 90 65
-10 36 -305 432 -330 444 -31 14 -66 -1 -80 -34 -11 -28 -9 -39 24 -118 20
-48 36 -92 36 -97 0 -6 -42 -38 -93 -73 -50 -35 -130 -90 -176 -122 -80 -56
-85 -58 -100 -41 -139 160 -270 262 -447 351 l-92 45 13 40 c7 22 25 79 40
128 l26 87 107 0 c131 0 147 4 162 40 22 53 -9 81 -125 115 -33 9 -69 21 -80
26 -16 7 -121 41 -335 108 -32 10 -65 -2 -80 -28 -21 -39 -1 -68 91 -136 49
-36 89 -71 89 -77 0 -17 -70 -231 -78 -240 -4 -4 -36 -1 -72 7 -188 39 -419
35 -587 -9 -51 -14 -52 -13 -59 7 -3 12 -28 92 -55 178 -27 85 -49 162 -49
171 0 9 10 23 23 31 53 37 97 87 97 111 0 28 -35 66 -59 65 -9 0 -36 -6 -61
-13z"/>
</g>
</svg>
